<svg xmlns="http://www.w3.org/2000/svg" viewBox="0 0 1000 800" width="1000" height="800">
  <defs>
    <style>
      .bg { fill: #f8f9fa; }
      .feature-card { fill: #ffffff; stroke: #e1e4e8; stroke-width: 2; }
      .text-title { font-family: -apple-system, system-ui, sans-serif; font-weight: bold; font-size: 14px; fill: #24292e; }
      .text-sub { font-family: -apple-system, sans-serif; font-size: 11px; fill: #586069; }
      
      .icon-bg { opacity: 0.1; }
      .icon-stroke { fill: none; stroke-width: 2.5; stroke-linecap: round; stroke-linejoin: round; }
      
      .c1-fill { fill: #d73a49; } .c1-stroke { stroke: #d73a49; }
      .c2-fill { fill: #28a745; } .c2-stroke { stroke: #28a745; }
      .c3-fill { fill: #0366d6; } .c3-stroke { stroke: #0366d6; }
      .c4-fill { fill: #6f42c1; } .c4-stroke { stroke: #6f42c1; }
      .c5-fill { fill: #f66a0a; } .c5-stroke { stroke: #f66a0a; }
      .c6-fill { fill: #0969da; } .c6-stroke { stroke: #0969da; }
    </style>
  </defs>

  <rect width="100%" height="100%" class="bg" rx="16"/>

  <!-- Row 1 -->
  <g transform="translate(45, 40)">
    <rect width="215" height="160" rx="12" class="feature-card" />
    <circle cx="108" cy="55" r="35" class="icon-bg c1-fill" />
    <path d="M110 35 L100 60 L108 60 L104 80 L118 52 L110 52 Z" class="c1-fill" />
    <text x="108" y="115" text-anchor="middle" class="text-title">200ms Hot-Start</text>
    <text x="108" y="135" text-anchor="middle" class="text-sub">Instant CLI Execution</text>
  </g>

  <g transform="translate(285, 40)">
    <rect width="215" height="160" rx="12" class="feature-card" />
    <circle cx="108" cy="55" r="35" class="icon-bg c2-fill" />
    <rect x="93" y="40" width="30" height="8" rx="2" class="c2-fill" opacity="0.4" />
    <rect x="88" y="52" width="40" height="8" rx="2" class="c2-fill" opacity="0.6" />
    <rect x="83" y="64" width="50" height="8" rx="2" class="c2-fill" />
    <text x="108" y="115" text-anchor="middle" class="text-title">Session Pool</text>
    <text x="108" y="135" text-anchor="middle" class="text-sub">Stateful Persistence</text>
  </g>

  <g transform="translate(525, 40)">
    <rect width="215" height="160" rx="12" class="feature-card" />
    <circle cx="108" cy="55" r="35" class="icon-bg c3-fill" />
    <path d="M108 35 L118 42 L118 55 C118 65 113 72 108 75 C103 72 98 65 98 55 L98 42 Z" class="icon-stroke c3-stroke" />
    <text x="108" y="115" text-anchor="middle" class="text-title">WAF Security</text>
    <text x="108" y="135" text-anchor="middle" class="text-sub">Regex Command Defense</text>
  </g>

  <g transform="translate(765, 40)">
    <rect width="215" height="160" rx="12" class="feature-card" />
    <circle cx="108" cy="55" r="35" class="icon-bg c4-fill" />
    <path d="M98 48 L118 48 M108 40 L118 48 L108 56" class="icon-stroke c4-stroke" />
    <path d="M118 62 L98 62 M108 54 L98 62 L108 70" class="icon-stroke c4-stroke" />
    <text x="108" y="115" text-anchor="middle" class="text-title">Full-Duplex I/O</text>
    <text x="108" y="135" text-anchor="middle" class="text-sub">Slack, TG, DingTalk</text>
  </g>

  <!-- Row 2 -->
  <g transform="translate(45, 230)">
    <rect width="215" height="160" rx="12" class="feature-card" />
    <circle cx="108" cy="55" r="35" class="icon-bg c5-fill" />
    <path d="M98 40 H118 V60 H98 Z" class="c5-fill" />
    <text x="108" y="115" text-anchor="middle" class="text-title">ChatApps</text>
    <text x="108" y="135" text-anchor="middle" class="text-sub">Slack, TG, DingTalk</text>
  </g>

  <g transform="translate(285, 230)">
    <rect width="215" height="160" rx="12" class="feature-card" />
    <circle cx="108" cy="55" r="35" class="icon-bg c6-fill" />
    <path d="M98 45 L88 55 L98 65 M118 45 L128 55 L118 65" class="icon-stroke c6-stroke" />
    <text x="108" y="115" text-anchor="middle" class="text-title">Go SDK + Proxy</text>
    <text x="108" y="135" text-anchor="middle" class="text-sub">WebSocket API</text>
  </g>

  <g transform="translate(525, 230)">
    <rect width="215" height="160" rx="12" class="feature-card" />
    <circle cx="108" cy="55" r="35" class="icon-bg c1-fill" />
    <path d="M98 65 V45 L118 45 V65 Z" class="c1-fill" />
    <text x="108" y="115" text-anchor="middle" class="text-title">Observability</text>
    <text x="108" y="135" text-anchor="middle" class="text-sub">OTel &amp; Metrics</text>
  </g>

  <g transform="translate(765, 230)">
    <rect width="215" height="160" rx="12" class="feature-card" />
    <circle cx="108" cy="55" r="35" class="icon-bg c2-fill" />
    <rect x="98" y="45" width="20" height="15" rx="3" class="icon-stroke c2-stroke" />
    <text x="108" y="115" text-anchor="middle" class="text-title">PGID Isolation</text>
    <text x="108" y="135" text-anchor="middle" class="text-sub">System-Level Sandbox</text>
  </g>

  <!-- Row 3 -->
  <g transform="translate(45, 420)">
    <rect width="215" height="160" rx="12" class="feature-card" />
    <circle cx="108" cy="55" r="35" class="icon-bg c3-fill" />
    <path d="M93 55 A15 15 0 1 1 123 55 A15 15 0 1 1 93 55" class="icon-stroke c3-stroke" />
    <text x="108" y="115" text-anchor="middle" class="text-title">Multi-Provider</text>
    <text x="108" y="135" text-anchor="middle" class="text-sub">Claude &amp; OpenCode</text>
  </g>

  <g transform="translate(285, 420)">
    <rect width="215" height="160" rx="12" class="feature-card" />
    <circle cx="108" cy="55" r="35" class="icon-bg c4-fill" />
    <path d="M93 45 L123 45 L123 65 L93 65 Z" class="icon-stroke c4-stroke" />
    <text x="108" y="115" text-anchor="middle" class="text-title">Docker Sandbox</text>
    <text x="108" y="135" text-anchor="middle" class="text-sub">Remote Execution</text>
  </g>

  <g transform="translate(525, 420)">
    <rect width="215" height="160" rx="12" class="feature-card" />
    <circle cx="108" cy="55" r="35" class="icon-bg c5-fill" />
    <path d="M93 55 H123 M108 40 V70" class="icon-stroke c5-stroke" />
    <text x="108" y="115" text-anchor="middle" class="text-title">Multi-Language SDK</text>
    <text x="108" y="135" text-anchor="middle" class="text-sub">Go, Python, TS</text>
  </g>

  <g transform="translate(765, 420)">
    <rect width="215" height="160" rx="12" class="feature-card" />
    <circle cx="108" cy="55" r="35" class="icon-bg c6-fill" />
    <path d="M93 60 L108 40 L123 60" class="icon-stroke c6-stroke" />
    <text x="108" y="115" text-anchor="middle" class="text-title">Auto-Recovery</text>
    <text x="108" y="135" text-anchor="middle" class="text-sub">Session Durability</text>
  </g>
</svg>
