<svg xmlns="http://www.w3.org/2000/svg" viewBox="0 0 1190 240" width="1190" height="240">
  <defs>
    <style>
      .bg { fill: #f8f9fa; }
      .feature-card { fill: #ffffff; stroke: #e1e4e8; stroke-width: 2; }
      .text-title { font-family: sans-serif; font-weight: bold; font-size: 14px; fill: #24292e; }
      .text-sub { font-family: sans-serif; font-size: 12px; fill: #586069; }
      
      .icon-bg { opacity: 0.1; }
      .icon-stroke { fill: none; stroke-width: 2.5; stroke-linecap: round; stroke-linejoin: round; }
      
      .c1-fill { fill: #d73a49; } .c1-stroke { stroke: #d73a49; }
      .c2-fill { fill: #28a745; } .c2-stroke { stroke: #28a745; }
      .c3-fill { fill: #0366d6; } .c3-stroke { stroke: #0366d6; }
      .c4-fill { fill: #6f42c1; } .c4-stroke { stroke: #6f42c1; }
      .c5-fill { fill: #f66a0a; } .c5-stroke { stroke: #f66a0a; }
    </style>
  </defs>

  <rect width="1190" height="240" class="bg" rx="16"/>

  <!-- Feature 1: Hot Start -->
  <g transform="translate(40, 40)">
    <rect width="170" height="160" rx="12" class="feature-card" />
    <circle cx="85" cy="55" r="35" class="icon-bg c1-fill" />
    <path d="M88 35 L75 60 L85 60 L80 80 L98 52 L88 52 Z" class="c1-fill" />
    <text x="85" y="115" text-anchor="middle" class="text-title">200ms Hot-Start</text>
    <text x="85" y="135" text-anchor="middle" class="text-sub">Instant CLI Execution</text>
  </g>

  <!-- Feature 2: Session Pool -->
  <g transform="translate(230, 40)">
    <rect width="170" height="160" rx="12" class="feature-card" />
    <circle cx="85" cy="55" r="35" class="icon-bg c2-fill" />
    <rect x="70" y="40" width="30" height="8" rx="2" class="c2-fill" opacity="0.4" />
    <rect x="65" y="52" width="40" height="8" rx="2" class="c2-fill" opacity="0.6" />
    <rect x="60" y="64" width="50" height="8" rx="2" class="c2-fill" />
    <text x="85" y="115" text-anchor="middle" class="text-title">Session Pool</text>
    <text x="85" y="135" text-anchor="middle" class="text-sub">Stateful Persistence</text>
  </g>

  <!-- Feature 3: Security -->
  <g transform="translate(420, 40)">
    <rect width="170" height="160" rx="12" class="feature-card" />
    <circle cx="85" cy="55" r="35" class="icon-bg c3-fill" />
    <path d="M85 35 L98 42 L98 55 C98 65 92 72 85 75 C78 72 72 65 72 55 L72 42 Z" class="icon-stroke c3-stroke" />
    <path d="M78 55 L83 60 L92 48" class="icon-stroke c3-stroke" />
    <text x="85" y="115" text-anchor="middle" class="text-title">WAF Security</text>
    <text x="85" y="135" text-anchor="middle" class="text-sub">Regex Data Defense</text>
  </g>

  <!-- Feature 4: Duplex -->
  <g transform="translate(610, 40)">
    <rect width="170" height="160" rx="12" class="feature-card" />
    <circle cx="85" cy="55" r="35" class="icon-bg c4-fill" />
    <path d="M70 48 L100 48 M90 40 L100 48 L90 56" class="icon-stroke c4-stroke" />
    <path d="M100 62 L70 62 M80 54 L70 62 L80 70" class="icon-stroke c4-stroke" />
    <text x="85" y="115" text-anchor="middle" class="text-title">Full-Duplex</text>
    <text x="85" y="135" text-anchor="middle" class="text-sub">Async Token Stream</text>
  </g>

  <!-- Feature 5: Dual Mode -->
  <g transform="translate(800, 40)">
    <rect width="170" height="160" rx="12" class="feature-card" />
    <circle cx="85" cy="55" r="35" class="icon-bg c5-fill" />
    <path d="M72 45 L62 55 L72 65 M98 45 L108 55 L98 65" class="icon-stroke c5-stroke" />
    <path d="M88 40 L82 70" class="icon-stroke c5-stroke" />
    <text x="85" y="115" text-anchor="middle" class="text-title">SDK + Daemon</text>
    <text x="85" y="135" text-anchor="middle" class="text-sub">Cloud-Native Ready</text>
  </g>
  <!-- Feature 6: Observability -->
  <g transform="translate(990, 40)">
    <rect width="170" height="160" rx="12" class="feature-card" />
    <circle cx="85" cy="55" r="35" class="icon-bg c1-fill" />
    <path d="M70 65 L70 45 L78 45 L78 65 Z" class="c1-fill" />
    <path d="M82 65 L82 35 L90 35 L90 65 Z" class="c1-fill" />
    <path d="M94 65 L94 50 L102 50 L102 65 Z" class="c1-fill" />
    <text x="85" y="115" text-anchor="middle" class="text-title">Observability</text>
    <text x="85" y="135" text-anchor="middle" class="text-sub">Metrics &amp; Tracing</text>
  </g>
</svg>
