<svg xmlns="http://www.w3.org/2000/svg" viewBox="0 0 1000 800" width="1000" height="800">
  <defs>
    <style>
      .bg { fill: #f8f9fa; }
      .layer-bg { fill: #fff; stroke: #e1e4e8; stroke-width: 2; }
      .layer-sandbox { fill: #f1f3f5; stroke: #cfd4da; stroke-width: 2; stroke-dasharray: 4; }
      .box { rx: 8; fill: #fff; stroke-width: 2; stroke: #e1e4e8; }
      .box-accent { fill: rgba(3, 102, 214, 0.05); stroke: #0366d6; stroke-width: 2; rx: 8; }
      .box-success { fill: rgba(40, 167, 69, 0.05); stroke: #28a745; stroke-width: 2; rx: 8; }
      .box-warning { fill: rgba(215, 58, 73, 0.05); stroke: #d73a49; stroke-width: 2; rx: 8; }
      .box-purple { fill: rgba(111, 66, 193, 0.05); stroke: #6f42c1; stroke-width: 2; rx: 8; }
      
      .text-title { font-family: -apple-system, BlinkMacSystemFont, "Segoe UI", sans-serif; font-weight: bold; font-size: 22px; fill: #24292e; }
      .text-layer { font-family: -apple-system, sans-serif; font-weight: bold; font-size: 16px; fill: #586069; }
      .text-label { font-family: -apple-system, sans-serif; font-weight: bold; font-size: 14px; fill: #24292e; }
      .text-sub { font-family: -apple-system, sans-serif; font-size: 12px; fill: #6a737d; }
      .text-code { font-family: monospace; font-size: 12px; fill: #444; }
      
      .arrow { fill: none; stroke: #0366d6; stroke-width: 2; stroke-linecap: round; }
    </style>
    <marker id="arrowhead" markerWidth="10" markerHeight="7" refX="9" refY="3.5" orient="auto">
      <polygon points="0 0, 10 3.5, 0 7" fill="#0366d6" />
    </marker>
  </defs>

  <rect width="100%" height="100%" class="bg" rx="16"/>
  <text x="500" y="45" text-anchor="middle" class="text-title">hotplex System Topology</text>

  <!-- Layer 1: Entrance Layer -->
  <rect x="50" y="80" width="900" height="140" rx="12" class="layer-bg" style="stroke-dasharray: 8 4;"/>
  <text x="70" y="105" class="text-layer">1. Access &amp; Interface Layer</text>

  <g transform="translate(100, 125)">
    <rect width="250" height="70" rx="8" class="box-accent" />
    <text x="20" y="30" class="text-label" style="fill:#0366d6">Multi-Language SDKs</text>
    <text x="20" y="52" class="text-code">Go | Python | TypeScript</text>
  </g>

  <g transform="translate(375, 125)">
    <rect width="250" height="70" rx="8" class="box" />
    <text x="20" y="30" class="text-label">hotplex Proxy Server</text>
    <text x="20" y="52" class="text-sub">WebSocket (Native) &amp; SSE</text>
  </g>

  <g transform="translate(650, 125)">
    <rect width="250" height="70" rx="8" class="box" style="stroke-dasharray: 4; fill: #f8f9fa" />
    <text x="20" y="30" class="text-label" style="fill:#586069">Observability &amp; Metrics</text>
    <text x="20" y="52" class="text-code">/metrics | /health (K8s)</text>
  </g>

  <!-- Bridge Labels -->
  <circle cx="500" cy="160" r="15" fill="#f8f9fa" stroke="#e1e4e8" />
  <text x="500" y="165" text-anchor="middle" class="text-sub" style="font-weight:bold;">OR</text>


  <!-- Layer 2: Core Engine -->
  <rect x="50" y="240" width="900" height="340" rx="12" class="layer-bg"/>
  <text x="70" y="265" class="text-layer">2. Core Orchestration Engine</text>

  <g transform="translate(100, 300)">
    <rect width="800" height="80" rx="8" class="box-accent" style="stroke-width: 3;"/>
    <text x="400" y="35" text-anchor="middle" class="text-title" style="font-size: 18px; fill:#0366d6">Engine (internal/engine/runner.go)</text>
    <text x="400" y="60" text-anchor="middle" class="text-sub">The concrete implementation of HotPlexClient Contract</text>
  </g>

  <!-- Components inside Layer 2 -->
  <g transform="translate(80, 410)">
    <rect width="200" height="140" rx="8" class="box-warning" />
    <text x="100" y="30" text-anchor="middle" class="text-label" style="fill:#d73a49">SafetyManager</text>
    <text x="100" y="55" text-anchor="middle" class="text-sub">internal/security</text>
    <rect x="20" y="75" width="160" height="45" rx="4" fill="#fff" stroke="#d73a49" stroke-width="1"/>
    <text x="100" y="95" text-anchor="middle" class="text-code">Regex WAF</text>
    <text x="100" y="110" text-anchor="middle" class="text-code">AllowList</text>
  </g>

  <g transform="translate(300, 410)">
    <rect width="200" height="140" rx="8" class="box-success" />
    <text x="100" y="30" text-anchor="middle" class="text-label" style="fill:#28a745">SessionController</text>
    <text x="100" y="55" text-anchor="middle" class="text-sub">internal/engine</text>
    <rect x="20" y="75" width="160" height="45" rx="4" fill="#fff" stroke="#28a745" stroke-width="1"/>
    <text x="100" y="102" text-anchor="middle" class="text-code">Process Pool &amp; GC</text>
  </g>

  <g transform="translate(520, 410)">
    <rect width="200" height="140" rx="8" class="box-purple" />
    <text x="100" y="30" text-anchor="middle" class="text-label" style="fill:#6f42c1">Event Hooks</text>
    <text x="100" y="55" text-anchor="middle" class="text-sub">hooks/*.go</text>
    <rect x="20" y="75" width="160" height="45" rx="4" fill="#fff" stroke="#6f42c1" stroke-width="1"/>
    <text x="100" y="95" text-anchor="middle" class="text-code">Webhooks &amp; Audit</text>
    <text x="100" y="110" text-anchor="middle" class="text-code">OTel Tracing</text>
  </g>

  <g transform="translate(740, 410)">
    <rect width="180" height="140" rx="8" class="box" style="stroke: #586069" />
    <text x="90" y="30" text-anchor="middle" class="text-label" style="fill:#586069">Provider</text>
    <text x="90" y="55" text-anchor="middle" class="text-sub">provider/*.go</text>
    <rect x="15" y="75" width="150" height="45" rx="4" fill="#fff" stroke="#586069" stroke-width="1"/>
    <text x="90" y="95" text-anchor="middle" class="text-code">Event Normalizer</text>
    <text x="90" y="110" text-anchor="middle" class="text-code">Claude | OpenCode</text>
  </g>


  <!-- Layer 3: OS Layer -->
  <rect x="50" y="600" width="900" height="160" rx="12" class="layer-sandbox"/>
  <text x="70" y="625" class="text-layer">3. OS Process Layer (Isolated Sandbox)</text>

  <g transform="translate(250, 650)">
    <rect width="500" height="80" rx="10" fill="#fff" stroke="#495057" stroke-width="2" />
    <text x="250" y="35" text-anchor="middle" class="text-title" style="fill:#212529; font-size: 18px;">OS Process Group (PGID)</text>
    <text x="250" y="60" text-anchor="middle" class="text-sub" style="fill:#495057;">Node.js Runtime | Persistent SQLite Context</text>
  </g>

  <!-- Connecting Lines -->
  <!-- Layer 1 to Layer 2: Convenging stepped lines -->
  <path d="M 280 195 L 280 240 L 500 240" class="arrow" />
  <path d="M 720 195 L 720 240 L 500 240" class="arrow" />
  <path d="M 500 240 L 500 300" class="arrow" marker-end="url(#arrowhead)"/>

  <!-- Inside Engine to Sub-components -->
  <path d="M 180 380 L 180 410" class="arrow" marker-end="url(#arrowhead)"/>
  <path d="M 400 380 L 400 410" class="arrow" marker-end="url(#arrowhead)"/>
  <path d="M 620 380 L 620 410" class="arrow" marker-end="url(#arrowhead)"/>
  <path d="M 830 380 L 830 410" class="arrow" marker-end="url(#arrowhead)"/>

  <!-- Layer 2 to Layer 3 -->
  <path d="M 500 550 L 500 650" class="arrow" marker-end="url(#arrowhead)"/>
  <text x="510" y="615" class="text-code" style="fill:#0366d6">Full-Duplex I/O</text>

</svg>
